HIERARCHY
ROOT Hips
{
  OFFSET 2.26061 22.2878 23.7974
  CHANNELS 6 Xposition Yposition Zposition Zrotation Xrotation Yrotation
  JOINT LeftUpLeg
  {
    OFFSET 8.64259 1.95398 -2.38835
    CHANNELS 3 Zrotation Xrotation Yrotation
    JOINT LeftLeg
    {
      OFFSET 43.7702 0 0
      CHANNELS 3 Zrotation Xrotation Yrotation
      JOINT LeftFoot
      {
        OFFSET 40.6238 0 0
        CHANNELS 3 Zrotation Xrotation Yrotation
        JOINT LeftToeBase
        {
          OFFSET 12.7242 0 0
          CHANNELS 3 Zrotation Xrotation Yrotation
          End Site
          {
            OFFSET 0 0 0
          }
        }
      }
    }
  }
  JOINT RightUpLeg
  {
    OFFSET -8.2249 1.95398 -2.59336
    CHANNELS 3 Zrotation Xrotation Yrotation
    JOINT RightLeg
    {
      OFFSET 43.5653 0 0
      CHANNELS 3 Zrotation Xrotation Yrotation
      JOINT RightFoot
      {
        OFFSET 40.6238 0 0
        CHANNELS 3 Zrotation Xrotation Yrotation
        JOINT RightToeBase
        {
          OFFSET 12.7242 0 0
          CHANNELS 3 Zrotation Xrotation Yrotation
          End Site
          {
            OFFSET 0 0 0
          }
        }
      }
    }
  }
  JOINT Spine
  {
    OFFSET 0.165834 0.87714 6.61349
    CHANNELS 3 Zrotation Xrotation Yrotation
    JOINT Spine1
    {
      OFFSET 7.38963 1.71661e-005 0
      CHANNELS 3 Zrotation Xrotation Yrotation
      JOINT Spine2
      {
        OFFSET 11.9445 1.14441e-005 0
        CHANNELS 3 Zrotation Xrotation Yrotation
        JOINT Spine3
        {
          OFFSET 14.7254 4.19617e-005 0
          CHANNELS 3 Zrotation Xrotation Yrotation
          JOINT Spine4
          {
            OFFSET 10.9679 0 0
            CHANNELS 3 Zrotation Xrotation Yrotation
            JOINT RightShoulder
            {
              OFFSET 2.46616 -1.6653 3.69651
              CHANNELS 3 Zrotation Xrotation Yrotation
              JOINT RightArm
              {
                OFFSET 13.0012 0 0
                CHANNELS 3 Zrotation Xrotation Yrotation
                JOINT RightForeArm
                {
                  OFFSET 28.7848 1.52588e-005 0
                  CHANNELS 3 Zrotation Xrotation Yrotation
                  JOINT RightHand
                  {
                    OFFSET 26.5688 1.52588e-005 0
                    CHANNELS 3 Zrotation Xrotation Yrotation
                    End Site
                    {
                      OFFSET 0 0 0
                    }
                  }
                }
              }
            }
            JOINT LeftShoulder
            {
              OFFSET 2.38034 -1.29275 -3.7523
              CHANNELS 3 Zrotation Xrotation Yrotation
              JOINT LeftArm
              {
                OFFSET 16.3182 6.10351e-005 0
                CHANNELS 3 Zrotation Xrotation Yrotation
                JOINT LeftForeArm
                {
                  OFFSET 27.0901 0 0
                  CHANNELS 3 Zrotation Xrotation Yrotation
                  JOINT LeftHand
                  {
                    OFFSET 24.5451 1.52588e-005 0
                    CHANNELS 3 Zrotation Xrotation Yrotation
                    End Site
                    {
                      OFFSET 0 0 0
                    }
                  }
                }
              }
            }
            JOINT Neck
            {
              OFFSET 5.0226 -0.0266342 0
              CHANNELS 3 Zrotation Xrotation Yrotation
              JOINT Head
              {
                OFFSET 6.69363 2.86102e-005 0
                CHANNELS 3 Zrotation Xrotation Yrotation
                End Site
                {
                  OFFSET 0 0 0
                }
              }
            }
          }
        }
      }
    }
  }
}
MOTION
Frames:	7
Frame Time:	0.0416667
-42.359 96.2926 30.2084 92.0738 25.8486 92.4849 -169.86 7.65384 89.0978 -21.3996 -15.2441 -2.70117 68.2431 4.2855 5.65077 30.5487 1.48174 -1.13589 -175.431 13.18 94.8059 -21.2442 -29.1233 -7.95908 61.3267 -2.48796 -1.53688 41.4791 0.633207 -0.0293478 -1.54298 7.27888 -89.7391 12.3307 -2.9425 0.853756 0.662752 -2.90205 0.982516 -21.8992 -3.06291 -0.0708645 -1.88655 -3.06294 -0.0708822 96.8588 -55.3035 -89.714 19.3435 -3.74855 -0.480272 -8.05598 -32.6588 -34.9766 -14.361 -0.00568072 -5.13839 -108.298 -50.8835 52.6455 -11.7697 14.2894 -0.799021 -0.824486 9.15339 -26.832 5.96537 0.334234 1.45259 -9.94029 -32.7276 -1.74835 -10.787 -31.5657 -23.8861 
-42.8372 96.4128 30.1114 92.4352 26.4528 92.3879 -169.973 7.27516 89.0327 -20.9019 -14.9085 -2.5899 68.301 3.88865 5.07559 30.9138 1.71859 -0.486778 -175.303 12.6139 94.4959 -21.9845 -32.4835 -8.6283 60.6763 -2.07045 -1.30302 35.919 0.350546 -2.92396 -1.62066 7.23557 -89.7073 12.4194 -3.08115 0.936699 0.751617 -3.03694 1.0715 -21.8129 -3.22008 -0.0335513 -1.80024 -3.22008 -0.0335581 96.6074 -55.5825 -90.0526 18.9682 -3.84935 1.80687 -6.90757 -29.0353 -36.7643 -0.145857 -0.653644 5.79759 -107.78 -50.8786 53.3586 -11.7345 14.4803 -1.33818 -0.894839 9.62545 -27.5496 11.5933 0.925541 3.97868 -9.92667 -32.7107 -0.998759 -11.8976 -31.3205 -24.9121 
-43.1 96.4599 30.0275 92.7795 27.8377 92.2721 -170.181 6.76059 88.9298 -20.2156 -14.1626 -2.36717 68.5832 4.0014 4.22848 30.4702 1.21684 1.42145 -176.183 11.2336 94.222 -19.7535 -33.6676 -8.70297 58.2419 -0.775303 -0.515297 35.9026 0.356919 0.342729 -1.64463 7.18521 -89.7091 12.5206 -3.12887 0.943002 0.852961 -3.08431 1.0799 -21.7125 -3.26749 -0.0419337 -1.69983 -3.26747 -0.0419287 97.0675 -55.9259 -89.3542 18.9256 -2.48666 4.05058 -6.60398 -30.9201 -32.9794 2.25181 -0.443481 5.81512 -107.449 -50.77 53.7676 -11.9702 14.3343 -1.53502 -0.530921 9.25094 -28.7884 11.9631 0.997793 4.26747 -10.1719 -33.1376 -1.51918 -11.3436 -31.8973 -24.0561 
-43.3703 96.445 30.0355 93.4194 28.0637 91.8428 -170.268 6.22078 88.7182 -20.0856 -13.7027 -2.33226 69.2784 4.43062 3.9003 28.9604 -0.2158 3.55615 -176.842 10.3381 93.9731 -18.8881 -33.5925 -8.47407 58.5886 -0.810508 -0.548676 35.3389 0.316188 1.48851 -1.58425 7.19947 -89.7026 12.4912 -3.00598 0.940562 0.823243 -2.9617 1.07205 -21.7398 -3.14957 -0.00721882 -1.72717 -3.14957 -0.00721699 97.0193 -55.8994 -89.4261 19.2691 -1.47678 4.80192 -5.98929 -30.913 -30.5154 3.50824 -0.351499 6.269 -106.971 -50.7964 54.4442 -12.7503 13.8952 -1.03259 -0.125185 8.54902 -29.9789 12.4024 0.922147 3.42832 -10.1459 -33.3343 -1.25095 -11.338 -32.0798 -24.4691 
-43.5047 96.3826 30.0971 93.7769 28.1196 91.5735 -170.15 6.21564 88.7396 -20.626 -13.5497 -2.44942 69.3626 4.33278 3.76719 29.1433 0.00773259 2.8556 -176.736 9.92106 93.8757 -18.6057 -33.3808 -8.4114 58.978 -1.05316 -0.710479 35.4861 0.332626 0.45481 -1.5243 7.19866 -89.688 12.492 -2.87991 0.955246 0.823822 -2.83507 1.08115 -21.7369 -3.03375 0.0447885 -1.72425 -3.03375 0.044782 96.905 -55.7653 -89.6038 19.6512 -1.6771 4.94258 -6.38127 -29.6494 -31.9947 2.69876 -0.388834 5.86733 -107.023 -50.927 54.4303 -13.099 14.1628 -0.0462509 -0.591269 7.79775 -29.9406 12.5305 0.88302 3.06327 -10.0236 -33.3071 -0.851829 -11.9166 -31.9008 -25.3805 
-43.6087 96.303 30.2611 93.8432 29.1176 91.1517 -170.084 6.44145 88.5977 -21.0538 -13.2087 -2.62225 69.4589 4.41828 3.46177 28.9392 -0.0413413 1.65382 -176.395 10.3281 93.5335 -19.8936 -31.8143 -8.29538 61.9395 -2.5957 -1.63395 36.8303 0.38927 -2.4654 -1.53517 7.17812 -89.656 12.5339 -2.88599 1.02141 0.865674 -2.83826 1.14752 -21.6951 -3.05945 0.106058 -1.68243 -3.05947 0.106047 97.1675 -55.3033 -89.2645 19.9881 -2.88195 4.11913 -7.29836 -28.5183 -35.6059 1.7935 -0.434554 5.41395 -107.167 -50.8923 54.2151 -13.8477 14.0481 0.690756 -0.75343 8.47656 -28.1186 12.187 0.886563 3.26319 -10.625 -33.592 -1.35084 -11.4984 -32.2781 -25.3273 
-43.4411 96.2971 30.4185 94.1853 30.6199 90.689 -170.123 6.39168 88.6209 -21.2982 -11.2614 -2.5869 68.5913 4.15939 4.98402 29.837 0.85021 -0.164213 -176.088 10.5527 93.4328 -21.5264 -32.0665 -8.44622 61.9796 -2.72291 -1.69057 36.3224 0.361207 -1.77684 -1.56416 7.18757 -89.6581 12.5155 -2.94475 1.02328 0.847371 -2.89689 1.15198 -21.7145 -3.11604 0.0901238 -1.70182 -3.11603 0.0901261 96.9668 -55.0616 -89.5793 20.1249 -3.81763 2.78758 -8.11027 -27.3593 -39.3667 0.200292 -0.512046 5.43536 -107.328 -50.9311 54.0093 -14.6792 13.9259 1.44448 -1.26576 8.79262 -25.7366 11.3936 0.817779 3.14833 -10.2484 -33.8517 -1.029 -12.1223 -32.3849 -25.9289 
